<?xml version="1.0" encoding="UTF-8" standalone="no"?>
<!DOCTYPE svg PUBLIC "-//W3C//DTD SVG 1.1//EN"
 "http://www.w3.org/Graphics/SVG/1.1/DTD/svg11.dtd">
<!-- Generated by graphviz version 4.0.0 (0)
 -->
<!-- Pages: 1 -->
<svg width="495pt" height="168pt"
 viewBox="0.00 0.00 495.00 168.00" xmlns="http://www.w3.org/2000/svg" xmlns:xlink="http://www.w3.org/1999/xlink">
<g id="graph0" class="graph" transform="scale(1 1) rotate(0) translate(4 164)">
<g id="clust2" class="cluster">
<title>cluster_1</title>
<polygon fill="transparent" stroke="black" points="383,-46 383,-152 479,-152 479,-46 383,-46"/>
</g>
<!-- stage1 -->
<g id="node1" class="node">
<title>stage1</title>
<polygon fill="none" stroke="black" points="65,-62 0,-62 0,-26 65,-26 65,-62"/>
<text text-anchor="middle" x="32.5" y="-40.3" font-family="Times,serif" font-size="14.00">stage1</text>
</g>
<!-- stage2 -->
<g id="node2" class="node">
<title>stage2</title>
<polygon fill="none" stroke="black" points="167,-62 102,-62 102,-26 167,-26 167,-62"/>
<text text-anchor="middle" x="134.5" y="-40.3" font-family="Times,serif" font-size="14.00">stage2</text>
</g>
<!-- stage1&#45;&gt;stage2 -->
<g id="edge1" class="edge">
<title>stage1&#45;&gt;stage2</title>
<path fill="none" stroke="red" stroke-dasharray="1,5" d="M65.14,-44C73.53,-44 82.72,-44 91.57,-44"/>
<polygon fill="red" stroke="red" points="91.72,-47.5 101.72,-44 91.72,-40.5 91.72,-47.5"/>
</g>
<!-- stage3_1 -->
<g id="node3" class="node">
<title>stage3_1</title>
<polygon fill="none" stroke="black" points="284,-90 204,-90 204,-54 284,-54 284,-90"/>
<text text-anchor="middle" x="244" y="-68.3" font-family="Times,serif" font-size="14.00">stage3_1</text>
</g>
<!-- stage2&#45;&gt;stage3_1 -->
<g id="edge2" class="edge">
<title>stage2&#45;&gt;stage3_1</title>
<path fill="none" stroke="red" stroke-dasharray="1,5" d="M167.17,-52.25C175.63,-54.45 184.97,-56.89 194.13,-59.27"/>
<polygon fill="red" stroke="red" points="193.37,-62.69 203.93,-61.82 195.14,-55.92 193.37,-62.69"/>
</g>
<!-- stage3_2 -->
<g id="node4" class="node">
<title>stage3_2</title>
<polygon fill="none" stroke="black" points="284,-36 204,-36 204,0 284,0 284,-36"/>
<text text-anchor="middle" x="244" y="-14.3" font-family="Times,serif" font-size="14.00">stage3_2</text>
</g>
<!-- stage2&#45;&gt;stage3_2 -->
<g id="edge3" class="edge">
<title>stage2&#45;&gt;stage3_2</title>
<path fill="none" stroke="red" stroke-dasharray="1,5" d="M167.17,-36.34C175.63,-34.29 184.97,-32.03 194.13,-29.82"/>
<polygon fill="red" stroke="red" points="195.04,-33.2 203.93,-27.45 193.39,-26.4 195.04,-33.2"/>
</g>
<!-- stage5_1 -->
<g id="node6" class="node">
<title>stage5_1</title>
<polygon fill="none" stroke="black" points="471,-144 391,-144 391,-108 471,-108 471,-144"/>
<text text-anchor="middle" x="431" y="-122.3" font-family="Times,serif" font-size="14.00">stage5_1</text>
</g>
<!-- stage3_1&#45;&gt;stage5_1 -->
<g id="edge5" class="edge">
<title>stage3_1&#45;&gt;stage5_1</title>
<path fill="none" stroke="red" stroke-dasharray="1,5" d="M284.23,-83.45C312.44,-91.69 350.67,-102.84 380.9,-111.67"/>
<polygon fill="red" stroke="red" points="380.24,-115.12 390.82,-114.56 382.2,-108.4 380.24,-115.12"/>
</g>
<!-- stage5_2 -->
<g id="node7" class="node">
<title>stage5_2</title>
<polygon fill="none" stroke="black" points="471,-90 391,-90 391,-54 471,-54 471,-90"/>
<text text-anchor="middle" x="431" y="-68.3" font-family="Times,serif" font-size="14.00">stage5_2</text>
</g>
<!-- stage3_1&#45;&gt;stage5_2 -->
<g id="edge6" class="edge">
<title>stage3_1&#45;&gt;stage5_2</title>
<path fill="none" stroke="red" stroke-dasharray="1,5" d="M284.23,-72C312.32,-72 350.34,-72 380.51,-72"/>
<polygon fill="red" stroke="red" points="380.82,-75.5 390.82,-72 380.82,-68.5 380.82,-75.5"/>
</g>
<!-- stage4 -->
<g id="node5" class="node">
<title>stage4</title>
<polygon fill="lightgray" stroke="green" stroke-dasharray="5,2" points="458,-36 404,-36 404,0 458,0 458,-36"/>
<text text-anchor="middle" x="431" y="-14.3" font-family="Times,serif" font-size="14.00">s4</text>
</g>
<!-- stage3_2&#45;&gt;stage4 -->
<g id="edge4" class="edge">
<title>stage3_2&#45;&gt;stage4</title>
<path fill="none" stroke="red" stroke-dasharray="1,5" d="M284.23,-18C316.63,-18 362.26,-18 393.8,-18"/>
<polygon fill="red" stroke="red" points="393.91,-21.5 403.91,-18 393.91,-14.5 393.91,-21.5"/>
<text text-anchor="middle" x="337.5" y="-21.8" font-family="Times,serif" font-size="14.00">some text</text>
</g>
</g>
</svg>
